<svg xmlns="http://www.w3.org/2000/svg" width="888" height="200" viewBox="0 0 888 200">
  <path fill="none" d="M291.47 144.596h305.059v34.537H291.47z"/>
  <path fill="#88C0D0" d="M293.899 144.597h1.35l21.959 31.004h.09v-31.004h.9v32.129h-1.35l-21.959-31.004h-.09v31.004h-.9v-32.129zm38.43 8.46c6.75 0 10.395 5.805 10.395 12.104 0 6.345-3.645 12.104-10.44 12.104-6.75 0-10.395-5.76-10.395-12.104 0-6.3 3.645-12.104 10.44-12.104zm0 23.308c6.165 0 9.495-5.354 9.495-11.204 0-5.76-3.33-11.205-9.495-11.205-6.255 0-9.54 5.445-9.54 11.205.001 5.85 3.285 11.204 9.54 11.204zm15.03.361h-.9v-23.129h.9v5.715h.09c.855-3.42 3.555-6.435 9.09-6.255v.899c-6.345-.314-9.18 4.636-9.18 9.675v13.095zm28.754-32.129h.9v32.129h-.9v-6.479h-.09c-1.17 4.05-4.545 7.02-9.27 7.02-6.12 0-9.855-5.085-9.855-12.06 0-6.479 3.465-12.149 9.855-12.149 4.905 0 8.189 2.835 9.27 7.02h.09v-15.481zm-9.36 9.359c-6.345 0-8.955 5.896-8.955 11.25 0 5.939 2.97 11.159 8.955 11.159 5.939 0 9.359-5.175 9.359-11.159.001-7.154-3.734-11.25-9.359-11.25z"/>
  <path fill="#2E3440" d="M392.088 144.597h25.469v2.61h-11.205v29.519h-3.06v-29.519h-11.205v-2.61zm24.615 21.284c.045 4.14 2.205 9.135 7.65 9.135 4.14 0 6.39-2.43 7.29-5.939h2.834c-1.215 5.265-4.274 8.324-10.124 8.324-7.38 0-10.485-5.67-10.485-12.284 0-6.12 3.105-12.284 10.485-12.284 7.47 0 10.439 6.524 10.215 13.049h-17.865zm15.03-2.385c-.136-4.274-2.79-8.279-7.38-8.279-4.635 0-7.2 4.05-7.65 8.279h15.03zm6.66-9.989h2.609v5.444h.09c1.44-3.734 4.589-5.939 8.775-5.76v2.835c-5.129-.27-8.639 3.51-8.639 8.325v12.374h-2.835v-23.218zm14.175 0h2.609v3.914h.135c1.484-2.789 3.914-4.589 7.605-4.589 3.059 0 5.805 1.484 6.658 4.544 1.396-3.06 4.32-4.544 7.381-4.544 5.084 0 7.693 2.654 7.693 8.145v15.749h-2.834v-15.614c0-3.825-1.439-5.895-5.49-5.895-4.904 0-6.299 4.05-6.299 8.369v13.14h-2.836v-15.749c.045-3.15-1.26-5.76-4.859-5.76-4.904 0-6.885 3.689-6.93 8.55v12.959h-2.834v-23.219zm37.53-8.91h2.834v4.545h-2.834v-4.545zm0 8.91h2.834v23.219h-2.834v-23.219zm8.234 0h2.836v4.005h.09c1.033-2.79 4.139-4.68 7.424-4.68 6.525 0 8.504 3.419 8.504 8.954v14.939h-2.834v-14.489c0-4.005-1.305-7.02-5.895-7.02-4.5 0-7.199 3.42-7.289 7.964v13.545h-2.836v-23.218zm23.939 7.109c.27-5.444 4.094-7.784 9.404-7.784 4.096 0 8.549 1.26 8.549 7.469v12.33c0 1.08.541 1.71 1.666 1.71.314 0 .674-.09.9-.18v2.385c-.631.135-1.08.18-1.846.18-2.879 0-3.33-1.62-3.33-4.05h-.09c-1.98 3.015-4.004 4.725-8.459 4.725-4.275 0-7.785-2.114-7.785-6.795 0-6.524 6.346-6.749 12.465-7.47 2.34-.27 3.645-.585 3.645-3.149 0-3.825-2.744-4.77-6.074-4.77-3.51 0-6.121 1.619-6.211 5.399h-2.834zm15.12 3.42h-.09c-.359.675-1.619.9-2.385 1.035-4.814.854-10.801.81-10.801 5.354 0 2.835 2.521 4.59 5.176 4.59 4.32 0 8.145-2.745 8.1-7.29v-3.689zm13.005-10.529h4.725v2.385h-4.725v15.659c0 1.845.27 2.925 2.293 3.06.811 0 1.621-.045 2.432-.135v2.43c-.855 0-1.666.09-2.521.09-3.779 0-5.084-1.26-5.039-5.22v-15.884h-4.049v-2.385h4.049v-6.975h2.836v6.975zm29.608 11.609c0 6.659-3.869 12.284-10.979 12.284-7.111 0-10.98-5.625-10.98-12.284 0-6.66 3.869-12.284 10.98-12.284 7.11 0 10.979 5.624 10.979 12.284zm-19.123 0c0 4.949 2.699 9.899 8.145 9.899 5.443 0 8.145-4.95 8.145-9.899 0-4.95-2.701-9.899-8.145-9.899-5.446 0-8.145 4.949-8.145 9.899zm23.353-11.609h2.609v5.444h.09c1.441-3.734 4.59-5.939 8.775-5.76v2.835c-5.129-.27-8.639 3.51-8.639 8.325v12.374h-2.836v-23.218z"/>
  <g fill="#2E3440">
    <path d="M466.561 126.596l-43.393-55.545V55.639l48.092 62.172h25.844V30.266h-43.465l-9.397-9.399H506.5v105.729z"/>
    <path d="M421.439 20.867l43.395 55.541v15.41L416.741 29.65h-25.843v87.545h43.464l9.4 9.401H381.5V20.867z"/>
  </g>
</svg>
